# xmcd CD database file
#
# Track frame offsets:
#	150
#	21935
#	43135
#	63002
#
# Disc length: 1103 seconds
#
# Revision: 0
# Processed by: cddbd v1.5.1PL2 Copyright (c) Steve Scherf et al.
# Submitted via: CDex 1.51
#
DISCID=2c044d04
DTITLE=稲垣潤一 - TEN
DYEAR=1990
DGENRE=J-POP
TTITLE0=P.S. 抱きしめたい
TTITLE1=君は知らない
TTITLE2=優しさが瞳にしみる
TTITLE3=MOONLIGHT MERMAID
EXTD=YEAR: 1990
EXTT0=
EXTT1=
EXTT2=
EXTT3=
PLAYORDER=
